<?xml version="1.0" encoding="utf-8"?>
<!-- Generator: Adobe Illustrator 16.0.0, SVG Export Plug-In . SVG Version: 6.00 Build 0)  -->
<!DOCTYPE svg PUBLIC "-//W3C//DTD SVG 1.1//EN" "http://www.w3.org/Graphics/SVG/1.1/DTD/svg11.dtd">
<svg version="1.1" id="Layer_1" xmlns="http://www.w3.org/2000/svg" xmlns:xlink="http://www.w3.org/1999/xlink" x="0px" y="0px"
	 width="25.643px" height="64px" viewBox="0 0 25.643 64" enable-background="new 0 0 25.643 64" xml:space="preserve">
<g id="XMLID_2_">
	<g id="XMLID_105_">
		<path id="XMLID_214_" fill="#A8A5C4" d="M21.219,29.98c-0.313-0.338-1.127-0.063-1.127-0.063l-0.401,0.701l-4.708,8.717
			c0,0,4.559,2.73,6.438,3.357c2.354,0.775,4.546-0.59,4.184-3.858c-0.088-0.827-0.766-3.068-1.804-5.21
			C23.035,32.046,21.845,30.656,21.219,29.98z"/>
		<path id="XMLID_213_" fill="#8F889E" d="M21.106,29.98c-0.313-0.338-1.129-0.063-1.129-0.063l-0.399,0.701l-4.709,8.717
			c0,0,3.493-1.564,5.423-1.14c0.538,0.113,1.052-0.4,1.015-0.376c-0.038,0.025-0.213-1.728-0.288-2.805
			c-0.063-0.827-0.214-2.268,0-3.958C21.055,30.744,21.195,30.067,21.106,29.98z"/>
		<path id="XMLID_212_" fill="#A8A5C4" d="M4.423,29.98c0.313-0.338,1.127-0.063,1.127-0.063l0.401,0.701l4.709,8.717
			c0,0-4.559,2.73-6.438,3.357c-2.354,0.775-4.546-0.59-4.184-3.858c0.088-0.827,0.765-3.068,1.804-5.21
			C2.607,32.046,3.797,30.656,4.423,29.98z"/>
		<path id="XMLID_211_" fill="#8F889E" d="M4.423,29.98c0.313-0.338,1.127-0.063,1.127-0.063l0.401,0.701l4.709,8.717
			c0,0-3.495-1.564-5.423-1.14c-0.651,0.139-0.926,0.614-0.926-0.188c-0.013-0.538,0.15-2.141,0.212-2.98
			c0.063-0.827,0.213-2.267,0-3.958C4.474,30.744,4.336,30.067,4.423,29.98z"/>
		<path id="XMLID_210_" fill="#A8A5C4" d="M13.027,50.608l-3.056,9.518c0,0-1.828,0.564-3.857-0.376
			c0.138-4.571,0.088-10.508,0.088-10.508L13.027,50.608z"/>
		<path id="XMLID_209_" fill="#A8A5C4" d="M11.3,48.829l3.77,11.196c0,0,1.904,0.678,3.92-0.275
			c-0.138-4.571-0.112-10.508-0.112-10.508L11.3,48.829z"/>
		<path id="XMLID_208_" fill="#8F889E" d="M3.484,49.869c0,0,3.194,1.816,8.955,1.891c1.817,0.025,5.949-0.351,7.465-1.075
			c0.162-0.076,0.137-0.076,0.162-0.214C20.204,49.605,3.484,49.869,3.484,49.869z"/>
		<path id="XMLID_207_" fill="#8F889E" d="M10.749,51.686c0,0,0.726,0.863,0.451,2.116c-0.263,1.253-1.228,6.312-1.228,6.312
			l2.73-8.491L10.749,51.686z"/>
		<path id="XMLID_206_" fill="#8F889E" d="M12.376,51.998l2.743,8.128c0,0-0.3-1.189-0.362-1.453
			c-0.051-0.263-0.764-2.479-0.827-2.918c-0.05-0.45-0.79-2.654-0.903-2.98c-0.111-0.313-0.2-1.252-0.488-1.189
			S12.376,51.998,12.376,51.998z"/>
		<g id="XMLID_201_">
			<path id="XMLID_205_" fill="#ED1B2F" d="M10.084,59.801c-0.513,0.212-1.19,0.337-1.929,0.337c-0.802,0-1.528-0.149-2.054-0.388
				c-2.68,0.301-3.757,2.956-3.218,3.532c0.726,0.776,3.469,1.065,5.435,0.126c0.751-0.364,2.079-0.063,2.079-0.84v-2.305
				C10.397,60.063,10.272,59.889,10.084,59.801z"/>
			<path id="XMLID_204_" fill="#4E4E4F" d="M2.783,62.557c-0.063,0.326-0.025,0.588,0.101,0.726
				c0.726,0.776,3.469,1.065,5.435,0.126c0.751-0.364,2.079-0.063,2.079-0.84v-0.464c-0.614,0.051-1.64,0.214-2.868,0.765
				C6.064,63.521,4.26,63.17,2.783,62.557z"/>
			<g id="XMLID_202_">
				<path id="XMLID_203_" fill="#FFFFFF" d="M2.795,62.531c0.013-0.038,0.013-0.088,0.025-0.126
					C2.808,62.443,2.795,62.493,2.795,62.531z"/>
			</g>
		</g>
		<g id="XMLID_196_">
			<path id="XMLID_200_" fill="#ED1B2F" d="M15.008,59.801c0.513,0.212,1.188,0.337,1.928,0.337c0.803,0,1.528-0.149,2.054-0.388
				c2.682,0.301,3.759,2.956,3.22,3.532c-0.727,0.776-3.47,1.065-5.437,0.126c-0.75-0.364-2.079-0.063-2.079-0.84v-2.305
				C14.693,60.063,14.819,59.889,15.008,59.801z"/>
			<path id="XMLID_199_" fill="#4E4E4F" d="M22.31,62.557c0.062,0.326,0.025,0.588-0.101,0.726c-0.727,0.776-3.47,1.065-5.437,0.126
				c-0.75-0.364-2.079-0.063-2.079-0.84v-0.464c0.614,0.051,1.642,0.214,2.868,0.765C19.026,63.521,20.844,63.17,22.31,62.557z"/>
			<g id="XMLID_197_">
				<path id="XMLID_198_" fill="#FFFFFF" d="M22.31,62.531c-0.014-0.038-0.014-0.088-0.025-0.126
					C22.296,62.443,22.296,62.493,22.31,62.531z"/>
			</g>
		</g>
		<path id="XMLID_195_" fill="#A8A5C4" d="M7.003,27.313L6.94,28.677c0,0-1.064,0.401-1.315,0.563
			c-0.576,0.376-0.087,7.829-0.087,7.829l-1.503,8.129c0,0-0.414,3.443-0.551,4.683c2.693,1.266,5.736,1.479,9.394,1.479
			c3.658,0,8.58-1.203,9.068-1.428c-0.088-1.729-0.325-4.733-0.325-4.733l-1.454-13.114l-1.465-3.407c0,0-0.175-0.951-0.513-2.217
			C18.037,25.885,7.003,27.313,7.003,27.313z"/>
		<path id="XMLID_194_" fill="#ECA071" d="M12.815,27.726c0,0-0.076,0-0.226,0c-0.639,0-2.53,0-4.722,0
			c1.766-0.201,3.945,3.418,4.947,3.418c0.425,0,1.315-0.551,2.204-1.102c1.19-0.739,1.955-1.616,2.168-2.567
			C14.982,27.463,13.492,27.726,12.815,27.726z"/>
		<path id="XMLID_193_" fill="#8F889E" d="M4.022,45.186c0,0,0.013,0.2,0.514,0.526c0.501,0.338,1.465,0.889,2.279,1.201
			c1.879,0.739,4.171,1.089,4.171,1.089l1.891-2.253l1.992,2.253c2.341-0.388,2.844-0.662,3.669-0.963
			c0.526-0.188,1.691-0.764,2.192-1.115c0.439-0.3,0.901-0.563,0.877-0.726c-0.013-0.176-0.013-0.125-0.013-0.125l-8.605-2.181
			L4.022,45.186z"/>
		<g id="XMLID_190_">
			<path id="XMLID_192_" fill="#ED1B2F" d="M6.94,28.677c0,0,2.393,5.398,5.886,6.401c0,4.02,0,10.42,0,10.42l-2.016,2.217
				c0,0-4.133-0.639-6.775-2.542c0.426-5.348,0.476-6.989,0.476-6.989s1.19-6.163-0.076-8.216
				C5.426,28.916,6.565,28.728,6.94,28.677z"/>
			<path id="XMLID_191_" fill="none" stroke="#5D5A67" stroke-width="0.7" stroke-linecap="round" stroke-miterlimit="10" d="
				M6.126,41.954c0,0,1.453,0.788,3.344,1.102"/>
		</g>
		<g id="XMLID_180_">
			<g id="XMLID_220_">
				<path id="XMLID_222_" fill="#D61F32" d="M6.94,28.677c0,0,2.393,5.398,5.886,6.401c0,4.02,0,10.42,0,10.42l-0.113,0.088
					l-0.738-0.814l-0.137-9.594C8.481,33.325,6.803,28.69,6.94,28.677z"/>
				<path id="XMLID_221_" fill="#D61F32" d="M6.126,41.954c0,0,1.453,0.788,3.344,1.102"/>
			</g>
			<g id="XMLID_217_">
				<path id="XMLID_219_" fill="#D61F32" d="M6.94,28.677c0,0,2.393,5.398,5.886,6.401c0,4.02,0,10.42,0,10.42l-0.113,0.088
					l-0.738-0.814l-0.137-9.594C8.481,33.325,6.803,28.69,6.94,28.677z"/>
				<path id="XMLID_218_" fill="none" stroke="#C62037" stroke-linecap="round" stroke-linejoin="round" stroke-miterlimit="10" d="
					M6.126,41.954c0,0,1.453,0.788,3.344,1.102"/>
			</g>
		</g>
		<g id="XMLID_177_">
			<path id="XMLID_179_" fill="#ED1B2F" d="M18.701,28.677c0,0-2.392,5.398-5.886,6.401l-0.614,0.174v9.532l2.63,2.943
				c0,0,4.133-0.64,6.776-2.542c-0.426-5.349-0.476-6.989-0.476-6.989s-1.216-6.188,0.05-8.254
				C20.18,28.878,19.077,28.728,18.701,28.677z"/>
			<path id="XMLID_178_" fill="none" stroke="#C62037" stroke-linecap="round" stroke-linejoin="round" stroke-miterlimit="10" d="
				M19.502,41.954c0,0-1.451,0.788-3.344,1.102"/>
		</g>
		
			<circle id="XMLID_176_" fill="#5D5A67" stroke="#171619" stroke-width="0.3" stroke-miterlimit="10" cx="13.002" cy="36.593" r="0.463"/>
		
			<circle id="XMLID_175_" fill="#5D5A67" stroke="#171619" stroke-width="0.3" stroke-miterlimit="10" cx="13.002" cy="40.463" r="0.463"/>
		
			<circle id="XMLID_174_" fill="#5D5A67" stroke="#171619" stroke-width="0.3" stroke-miterlimit="10" cx="13.002" cy="44.321" r="0.463"/>
		<path id="XMLID_173_" fill="#8F889E" d="M9.784,28.189c0,0,1.064,1.14,2.43,2.305c1.403,1.215,3.107,2.456,3.432,2.643
			c-0.275,0.226-2.856-1.579-3.432-2.03c-1.34-1.04-3.244-3.03-3.181-3.018C9.358,28.189,9.784,28.189,9.784,28.189z"/>
		<path id="XMLID_172_" fill="#8F889E" d="M17.011,27.789c0,0-2.229,2.605-4.184,3.343c0.263,0.439,2.781-1.415,3.306-1.841
			c0.526-0.425,1.215-1.353,1.215-1.641S17.011,27.789,17.011,27.789z"/>
		<path id="XMLID_171_" fill="#8F889E" d="M19.516,46.463c0,0,0.226,0.864,0.251,1.201c0.075,1.053,0.225,2.957,0.225,2.957
			s0.063,0.086,0.087-0.214c0.014-0.138,0.014-0.375-0.012-0.688c-0.075-1.103-0.126-2.98-0.199-3.431
			c-0.014-0.075-0.177,0.175-0.202,0.149C19.541,46.375,19.516,46.463,19.516,46.463z"/>
		<path id="XMLID_170_" fill="#332F2D" d="M11.312,38.008"/>
		<path id="XMLID_169_" fill="#FCCFA8" d="M7.642,37.721c0,0,2.555-1.24,3.294-1.616c0.563-0.288-0.288-1.164-0.288-2.267
			c0-1.653,1.252-3.056,1.578-3.47c0.501-0.651,0.551,0.038,0.551,0.476c0,2.506,0,4.572,0,6.238c0,0.727-3.932,3.193-3.932,3.193
			L7.642,37.721z"/>
		<path id="XMLID_168_" fill="#FCCFA8" d="M17.899,37.721c0,0-2.555-1.24-3.294-1.616c-0.563-0.288,0.289-1.164,0.289-2.267
			c0-1.653-1.253-3.056-1.58-3.47c-0.5-0.651-0.551,0.038-0.551,0.476c0,2.506,0,4.572,0,6.238c0,0.727,3.933,3.193,3.933,3.193
			L17.899,37.721z"/>
		<path id="XMLID_167_" fill="#E4BB9B" d="M17.899,37.721c0,0-2.555-1.24-3.294-1.616c-0.563-0.288,0.289-1.164,0.289-2.267
			c0-1.653-1.253-3.056-1.58-3.47c-0.5-0.651-0.024,0.463,0.213,0.839c1.417,2.243,0.188,2.819,0.602,4.937
			c0.051,0.225,1.729,0.988,2.217,1.076C17.049,37.345,17.899,37.721,17.899,37.721z"/>
		<path id="XMLID_166_" fill="#E4BB9B" d="M7.642,37.721c0,0,2.555-1.24,3.294-1.616c0.563-0.288-0.288-1.164-0.288-2.267
			c0-1.653,1.252-3.056,1.578-3.47c0.501-0.651,0.024,0.463-0.213,0.839c-1.415,2.243-0.188,2.819-0.601,4.937
			c-0.05,0.225-1.729,0.988-2.217,1.076C8.506,37.345,7.642,37.721,7.642,37.721z"/>
		<path id="XMLID_165_" fill="#F0AC81" d="M12.402,37.195c0.175-0.352,0.175-2.168,0.175-3.27c0-1.228-0.025-2.217-0.025-2.856
			c0-0.275,0-0.964,0.038-0.964c0.163,0.05,0.175,0.45,0.175,0.738c0,2.506,0,4.572,0,6.238c0,0.727-3.932,3.193-3.932,3.193
			s0.676-0.863,1.453-1.44C11.187,38.171,12.188,37.62,12.402,37.195z"/>
		<path id="XMLID_164_" fill="#E8A680" d="M13.14,37.195c-0.176-0.352-0.176-2.168-0.176-3.27c0-1.228,0.025-2.217,0.025-2.856
			c0-0.275,0-0.964-0.037-0.964c-0.163,0.05-0.176,0.45-0.176,0.738c0,2.506,0,4.572,0,6.238c0,0.727,3.932,3.193,3.932,3.193
			s-0.675-0.863-1.451-1.44C14.355,38.171,13.366,37.62,13.14,37.195z"/>
		<path id="XMLID_163_" fill="#A8A5C4" d="M9.483,36.594c0,0,0.188-0.025,0.727,1.339c0.626,1.566,0.451,1.616,0.451,1.616
			s-4.547,2.555-6.438,3.145c-1.44,0.438-3.732-3.745-0.864-4.672L9.483,36.594z"/>
		<path id="XMLID_162_" fill="#9B9BB6" d="M10.448,38.56c0.337,0.953,0.213,0.989,0.213,0.989s-4.547,2.555-6.438,3.145
			C2.771,43.131,10.385,38.385,10.448,38.56z"/>
		<path id="XMLID_161_" fill="#8F889E" d="M9.483,36.594l0.063,0.037l0.075,0.075c-1.503,0.426-5.599,1.364-6.913,1.666
			c-0.765,0.175-0.226-0.075,0.663-0.364L9.483,36.594z"/>
		<path id="XMLID_160_" fill="#A8A5C4" d="M16.171,36.594c0,0-0.212-0.076-0.775,1.327c-0.613,1.553-0.401,1.628-0.401,1.628
			s4.547,2.555,6.438,3.145c1.44,0.438,3.732-3.745,0.864-4.672L16.171,36.594z"/>
		<path id="XMLID_159_" fill="#9B9BB6" d="M15.156,38.56c-0.325,0.939-0.174,0.989-0.174,0.989s4.545,2.555,6.438,3.145
			C22.872,43.131,15.219,38.372,15.156,38.56z"/>
		<path id="XMLID_158_" fill="#8F889E" d="M16.133,36.594l-0.062,0.037l-0.074,0.075c1.502,0.426,5.598,1.364,6.913,1.666
			c0.764,0.175,0.226-0.075-0.663-0.364L16.133,36.594z"/>
		<g id="XMLID_106_">
			<path id="XMLID_152_" fill="#FFFFFF" d="M17.899,34.465l-0.363-0.15l-0.326,0.162l0.302-0.714L17.899,34.465z M18.338,34.088
				l-0.188-0.313l0.126-0.25l-0.715,0.225L18.338,34.088z M17.562,33.262l-0.025,0.451l0.464-0.4l-0.275,0.037L17.562,33.262z
				 M16.96,33.65l0.526,0.075l-0.226-0.363l-0.087,0.175L16.96,33.65z M16.897,33.851l0.126,0.151l-0.05,0.3l0.5-0.539
				L16.897,33.851z"/>
			<g id="XMLID_140_">
				<polygon id="XMLID_151_" fill="#FFFFFF" points="16.233,34.677 16.233,35.166 15.959,34.677 15.783,34.677 15.783,35.354 
					15.922,35.354 15.922,34.84 16.209,35.354 16.372,35.354 16.372,34.677 				"/>
				<rect id="XMLID_150_" x="16.484" y="34.677" fill="#FFFFFF" width="0.151" height="0.677"/>
				<path id="XMLID_149_" fill="#FFFFFF" d="M17.261,35.24v0.113h-0.237c-0.101,0-0.176-0.025-0.227-0.076
					c-0.049-0.049-0.088-0.136-0.088-0.25c0-0.112,0.025-0.188,0.076-0.25c0.05-0.063,0.126-0.101,0.238-0.101h0.225v0.113h-0.225
					c-0.063,0-0.112,0.025-0.126,0.063c-0.025,0.037-0.037,0.101-0.037,0.163v0.037c0,0.051,0.012,0.101,0.025,0.138
					c0.025,0.038,0.063,0.05,0.138,0.05H17.261L17.261,35.24z"/>
				<path id="XMLID_146_" fill="#FFFFFF" d="M17.774,35.066h0.2l-0.101-0.265L17.774,35.066z M17.949,34.677l0.29,0.677h-0.151
					l-0.063-0.163h-0.287l-0.063,0.163h-0.15l0.275-0.677H17.949z"/>
				<path id="XMLID_145_" fill="#FFFFFF" d="M18.652,34.953c0.063,0,0.112,0.012,0.149,0.037c0.036,0.025,0.05,0.076,0.05,0.151
					c0,0.062-0.014,0.11-0.05,0.149c-0.025,0.037-0.087,0.05-0.188,0.05h-0.374v-0.112h0.35c0.038,0,0.063,0,0.087-0.014
					c0.014-0.012,0.025-0.024,0.025-0.062c0-0.024-0.012-0.05-0.025-0.063c-0.012-0.013-0.037-0.013-0.074-0.013h-0.163
					c-0.076,0-0.126-0.012-0.162-0.051c-0.037-0.024-0.051-0.074-0.051-0.149c0-0.076,0.014-0.126,0.051-0.151
					c0.036-0.037,0.1-0.05,0.174-0.05h0.364v0.113h-0.351c-0.076,0-0.113,0.025-0.113,0.088c0,0.024,0.012,0.037,0.025,0.05
					c0.012,0.013,0.037,0.025,0.063,0.025H18.652z"/>
				<rect id="XMLID_144_" x="18.939" y="34.677" fill="#FFFFFF" width="0.138" height="0.677"/>
				<path id="XMLID_141_" fill="#FFFFFF" d="M19.378,35.066h0.2l-0.101-0.265L19.378,35.066z M19.553,34.677l0.289,0.677H19.69
					l-0.063-0.163h-0.287l-0.063,0.163h-0.149l0.274-0.677H19.553z"/>
			</g>
			<g id="XMLID_107_">
				<path id="XMLID_139_" fill="#FFFFFF" d="M16.335,35.643h-0.177v-0.025h0.251v0.025h-0.037v0.187h-0.037v-0.124h-0.102
					c-0.012,0-0.024,0-0.024,0.011c-0.013,0.013-0.013,0.025-0.013,0.025c0,0.013,0,0.025,0.013,0.025
					c0.013,0.012,0.013,0.012,0.024,0.012c0.014,0,0.025,0,0.025-0.012c0.013-0.013,0.013-0.025,0.013-0.038
					s-0.013-0.023-0.024-0.037h0.037c0.012,0.014,0.012,0.024,0.012,0.037s-0.012,0.038-0.024,0.05
					c-0.013,0.013-0.024,0.025-0.05,0.025c-0.013,0-0.038-0.013-0.051-0.025c-0.013-0.012-0.024-0.024-0.024-0.05
					c0-0.023,0.012-0.037,0.024-0.049s0.025-0.025,0.051-0.025h0.1v-0.012H16.335z"/>
				<path id="XMLID_138_" fill="#FFFFFF" d="M16.51,35.754h0.025v0.013c0,0.012,0,0.024,0.013,0.024
					c0.013,0.013,0.013,0.013,0.024,0.013c0.013,0,0.025,0,0.025-0.013c0.013-0.013,0.013-0.013,0.013-0.024
					c0-0.013,0-0.025-0.013-0.025c-0.013-0.013-0.013-0.013-0.025-0.013c-0.012,0-0.012,0-0.012,0v-0.023c0.012,0,0.012,0,0.012,0
					c0.013,0,0.013,0,0.025,0c0.013-0.014,0.013-0.014,0.013-0.025s0-0.025-0.013-0.025c-0.013-0.012-0.013-0.012-0.025-0.012
					c-0.012,0-0.024,0-0.024,0.012c-0.013,0.014-0.013,0.014-0.013,0.025H16.51c0-0.012,0.013-0.037,0.013-0.051
					c0.013-0.012,0.025-0.024,0.05-0.024c0.013,0,0.038,0.013,0.051,0.024c0.013,0.014,0.024,0.025,0.024,0.051
					c0,0.012,0,0.025-0.012,0.036l0.012,0.013h0.05v-0.1h-0.025v-0.024h0.088v0.024h-0.037v0.188h-0.025v-0.075h-0.038v0.013
					c0,0.024-0.012,0.037-0.023,0.05c-0.013,0.013-0.025,0.025-0.051,0.025c-0.013,0-0.037-0.013-0.05-0.025
					S16.51,35.778,16.51,35.754C16.51,35.767,16.51,35.754,16.51,35.754"/>
				<polygon id="XMLID_137_" fill="#FFFFFF" points="16.822,35.643 16.797,35.643 16.797,35.842 16.76,35.842 16.76,35.643 
					16.748,35.643 16.748,35.629 16.822,35.629 				"/>
				<path id="XMLID_136_" fill="#FFFFFF" d="M17.011,35.643h-0.037v0.049h-0.088c-0.014,0-0.014,0-0.014,0.014
					c0,0.011,0.014,0.011,0.025,0.011h0.014h0.012c0.025,0,0.037,0,0.051,0.013c0.012,0.013,0.024,0.025,0.024,0.038
					c0,0.012,0,0.024-0.013,0.037c-0.012,0.013-0.025,0.013-0.037,0.013l0.037,0.037l-0.025,0.025l-0.125-0.101l0.025-0.024
					c0.025,0.013,0.037,0.024,0.037,0.024c0.014,0.013,0.025,0.013,0.051,0.013c0.012,0,0.012,0,0.025-0.013
					c0,0,0.012-0.012,0.012-0.024s-0.012-0.025-0.037-0.025h-0.013c-0.013,0-0.013,0-0.013,0c-0.037,0-0.051-0.013-0.051-0.037
					c0-0.012,0-0.023,0.014-0.023c0.012-0.014,0.025-0.014,0.037-0.014h0.051v-0.025h-0.126v-0.024h0.188v0.038H17.011z"/>
				<path id="XMLID_135_" fill="#FFFFFF" d="M16.948,35.629c-0.013-0.012-0.013-0.024-0.013-0.037s0-0.025,0.013-0.038
					c0.012-0.012,0.025-0.012,0.037-0.012c0.025,0,0.038,0.012,0.051,0.037h-0.025c0-0.013-0.013-0.013-0.025-0.013
					c-0.012,0-0.012,0-0.025,0.013c0,0.013-0.012,0.013-0.012,0.025s0,0.013,0.012,0.024c0,0.014,0.014,0.014,0.025,0.014v0.012
					h-0.037V35.629z"/>
				<path id="XMLID_132_" fill="#FFFFFF" d="M17.324,35.643h-0.076c0.013,0.012,0.025,0.037,0.025,0.049c0,0.014,0,0.014,0,0.024
					h0.051V35.643z M17.387,35.643h-0.039v0.187h-0.023v-0.088h-0.063v-0.013c-0.013,0.025-0.025,0.038-0.051,0.05l0.075,0.063
					h-0.05l-0.112-0.088l0.025-0.025c0.014,0.013,0.025,0.013,0.025,0.013c0.013,0,0.013,0.013,0.024,0.013s0.025,0,0.037-0.013
					c0.013-0.013,0.013-0.025,0.013-0.036c0-0.025-0.013-0.037-0.024-0.051h-0.101v-0.025h0.275v0.014H17.387z"/>
				<path id="XMLID_131_" fill="#FFFFFF" d="M17.398,35.629c0-0.012-0.012-0.024-0.012-0.024c-0.014,0-0.014-0.013-0.025-0.013
					c-0.014,0-0.025,0-0.025,0.013c-0.012,0.013-0.012,0.013-0.012,0.024h-0.025c0-0.012,0.012-0.037,0.025-0.05
					c0.012-0.013,0.023-0.013,0.049-0.013s0.038,0,0.051,0.013s0.025,0.025,0.025,0.05h0.037v0.025h-0.037v0.188h-0.025v-0.188
					h-0.025V35.629L17.398,35.629z"/>
				<path id="XMLID_130_" fill="#FFFFFF" d="M17.925,35.629c-0.013-0.024-0.038-0.037-0.063-0.037c-0.025,0-0.051,0.013-0.063,0.037
					h0.037v0.025H17.8v0.188h-0.025v-0.188h-0.025v-0.025h0.025c0.012-0.024,0.025-0.037,0.037-0.05
					c0.013-0.013,0.038-0.013,0.063-0.013c0.025,0,0.038,0,0.063,0.013c0.012,0.013,0.025,0.025,0.037,0.05H17.925z"/>
				<path id="XMLID_127_" fill="#FFFFFF" d="M18.075,35.643h-0.038v0.187h-0.025v-0.187h-0.087v-0.025h0.15V35.643z M17.887,35.767
					l0.063,0.063h-0.037l-0.088-0.101l0.025-0.023l0.024,0.023c0.013,0,0.013,0,0.025,0s0.025,0,0.038-0.013
					c0.012-0.011,0.012-0.024,0.012-0.036s0-0.025-0.012-0.037c-0.013-0.014-0.013-0.014-0.038-0.014
					c-0.013,0-0.025,0.014-0.037,0.025h0.024v0.025h-0.063c0,0,0,0,0-0.012c0-0.025,0.013-0.039,0.025-0.051
					c0.013-0.013,0.024-0.025,0.05-0.025s0.038,0.013,0.05,0.025c0.014,0.012,0.025,0.037,0.025,0.051
					c0,0.023-0.012,0.037-0.025,0.048C17.925,35.754,17.912,35.767,17.887,35.767"/>
				<polygon id="XMLID_126_" fill="#FFFFFF" points="18.388,35.643 18.362,35.643 18.362,35.842 18.325,35.842 18.325,35.643 
					18.313,35.643 18.313,35.629 18.388,35.629 				"/>
				<path id="XMLID_123_" fill="#FFFFFF" d="M18.602,35.778l-0.051-0.073c-0.013,0.011-0.013,0.011-0.013,0.023s0,0.025,0.013,0.038
					c0.013,0.012,0.025,0.012,0.038,0.012C18.589,35.791,18.602,35.791,18.602,35.778 M18.701,35.643h-0.037v0.187h-0.025v-0.038
					c-0.012,0.013-0.025,0.013-0.05,0.013c-0.025,0-0.038-0.013-0.051-0.025c-0.012-0.012-0.024-0.037-0.024-0.05
					c0-0.023,0.013-0.037,0.024-0.049c0.013-0.012,0.038-0.025,0.051-0.025s0.024,0,0.038,0.014v0.037
					c-0.014-0.014-0.025-0.025-0.038-0.025h-0.013l0.051,0.062c0-0.013,0.012-0.013,0.012-0.013v-0.1h-0.138v-0.024h0.2V35.643z"/>
				<path id="XMLID_122_" fill="#FFFFFF" d="M18.613,35.629c-0.012-0.012-0.024-0.012-0.037-0.024s-0.025-0.025-0.025-0.025
					c-0.013-0.013-0.024-0.013-0.05-0.013l0.025-0.024c0.024,0,0.037,0.012,0.05,0.024c0,0,0.013,0.013,0.037,0.038
					c0-0.013-0.012-0.038-0.012-0.038c-0.013-0.013-0.025-0.024-0.038-0.038l0.025-0.012c0.013,0.012,0.024,0.025,0.038,0.037
					c0,0.013,0.012,0.025,0.012,0.038s0.014,0.025,0.014,0.025C18.639,35.617,18.627,35.617,18.613,35.629"/>
				<path id="XMLID_121_" fill="#FFFFFF" d="M18.689,35.579c0,0.013,0,0.013,0,0.013h-0.014c-0.012,0-0.012,0-0.012,0l-0.012-0.013
					c0-0.013,0-0.013,0-0.013l0.012-0.013c0.012,0,0.012,0,0.012,0.013C18.689,35.566,18.689,35.579,18.689,35.579"/>
				<path id="XMLID_120_" fill="#FFFFFF" d="M19.026,35.643h-0.149v0.037c0.012-0.012,0.024-0.012,0.049-0.012
					c0.025,0,0.038,0.012,0.051,0.023c0.013,0.014,0.025,0.037,0.025,0.05c0,0.025-0.013,0.037-0.025,0.063
					c-0.013,0.013-0.037,0.025-0.051,0.025c-0.012,0-0.024,0-0.037-0.013v-0.038c0.013,0.013,0.025,0.013,0.037,0.013
					c0.014,0,0.025,0,0.038-0.013c0.013-0.012,0.013-0.024,0.013-0.037s0-0.025-0.013-0.036c-0.013-0.014-0.024-0.014-0.038-0.014
					c-0.012,0-0.024,0-0.037,0.014c-0.012,0.011-0.012,0.023-0.012,0.023v0.101h-0.039v-0.025c-0.011,0.013-0.023,0.013-0.048,0.013
					c-0.025,0-0.038-0.013-0.051-0.025s-0.024-0.037-0.024-0.05c0-0.025,0.012-0.036,0.024-0.062
					c0.013-0.012,0.037-0.025,0.051-0.025c0.012,0,0.024,0,0.037,0.014v0.037c-0.013-0.014-0.025-0.014-0.037-0.014
					c-0.014,0-0.025,0-0.038,0.014c-0.013,0.011-0.013,0.023-0.013,0.036s0,0.025,0.013,0.037c0.013,0.013,0.024,0.013,0.038,0.013
					c0.012,0,0.024,0,0.037-0.013c0.011-0.012,0.011-0.024,0.011-0.037v-0.099h-0.148v-0.025h0.337V35.643z"/>
				<path id="XMLID_119_" fill="#FFFFFF" d="M19.315,35.629c-0.013-0.024-0.038-0.037-0.063-0.037c-0.024,0-0.05,0.013-0.063,0.037
					h0.038v0.025h-0.038v0.188h-0.024v-0.188H19.14v-0.025h0.025c0.013-0.024,0.024-0.037,0.037-0.05s0.038-0.013,0.063-0.013
					s0.037,0,0.063,0.013c0.013,0.013,0.025,0.025,0.037,0.05H19.315z"/>
				<path id="XMLID_118_" fill="#FFFFFF" d="M19.478,35.643h-0.038v0.187h-0.024v-0.124c-0.013,0-0.025,0-0.037,0.011
					c-0.013,0.013-0.013,0.025-0.013,0.038s0,0.013,0,0.024l-0.037-0.012c0-0.013,0-0.025,0-0.025
					c-0.013-0.013-0.025-0.025-0.051-0.025c-0.012,0-0.025,0-0.037,0.013c-0.013,0.013-0.013,0.025-0.013,0.038
					c0,0.012,0,0.024,0.013,0.037c0.012,0.013,0.025,0.013,0.037,0.013c0.014,0,0.025,0,0.038-0.013v0.038
					c-0.013,0.012-0.024,0.012-0.038,0.012c-0.025,0-0.037-0.012-0.05-0.024s-0.025-0.038-0.025-0.063
					c0-0.025,0.013-0.038,0.025-0.051c0.013-0.011,0.038-0.024,0.063-0.024c0.024,0,0.037,0.014,0.05,0.024v0.013
					c0.013-0.023,0.037-0.037,0.062-0.037v-0.037h-0.213v-0.025h0.275v0.014H19.478z"/>
				<path id="XMLID_117_" fill="#FFFFFF" d="M19.516,35.816c0,0.013-0.014,0.025-0.025,0.025c-0.013,0-0.013,0-0.013-0.013
					l-0.013-0.013c0-0.013,0-0.013,0.013-0.013h0.013c0.012,0,0.012,0,0.012,0.013C19.516,35.804,19.516,35.804,19.516,35.816"/>
				<path id="XMLID_114_" fill="#FFFFFF" d="M16.108,35.716c0,0.013,0,0.013-0.012,0.025c0,0-0.012,0.013-0.025,0.013
					c-0.012,0-0.012,0-0.025-0.013c0,0-0.012-0.013-0.012-0.025v-0.073h0.063v0.073H16.108z M15.983,35.629v0.025h0.025v0.124
					c0,0.013,0.014,0.038,0.025,0.051s0.025,0.024,0.051,0.024c0.023,0,0.036-0.012,0.048-0.024l0,0
					c-0.012-0.013-0.012-0.013-0.024-0.025l0,0c-0.012,0.013-0.012,0.013-0.023,0.013c-0.014,0-0.025,0-0.025-0.013
					c-0.014-0.013-0.014-0.013-0.014-0.025c0,0,0,0,0-0.012c0.014,0,0.014,0.012,0.039,0.012c0.012,0,0.023,0,0.036-0.012
					c0.012-0.013,0.012-0.025,0.012-0.038v-0.074h0.038v-0.025H15.983L15.983,35.629z"/>
				<path id="XMLID_111_" fill="#FFFFFF" d="M17.675,35.716c0,0.013,0,0.013-0.013,0.025c0,0-0.013,0.013-0.024,0.013
					c-0.014,0-0.014,0-0.025-0.013c-0.013,0-0.013-0.013-0.013-0.025v-0.073h0.063v0.073H17.675z M17.562,35.629v0.025h0.025v0.124
					c0,0.013,0.013,0.038,0.025,0.051c0.012,0.013,0.025,0.024,0.05,0.024c0.025,0,0.038-0.012,0.051-0.024l0,0
					c-0.013-0.013-0.013-0.013-0.025-0.025l0,0c-0.013,0.013-0.013,0.013-0.025,0.013s-0.024,0-0.024-0.013
					c-0.014-0.013-0.014-0.013-0.014-0.025c0,0,0,0,0-0.012c0.014,0,0.014,0.012,0.038,0.012c0.013,0,0.025,0,0.038-0.012
					c0.013-0.013,0.013-0.025,0.013-0.038v-0.074h0.036v-0.025H17.562L17.562,35.629z"/>
				<path id="XMLID_108_" fill="#FFFFFF" d="M18.251,35.741c0,0.013-0.012,0.025-0.025,0.025c-0.012,0.012-0.037,0.012-0.05,0.012
					c-0.025,0-0.038-0.012-0.05-0.024c0.012,0,0.012,0,0.024,0c0.025,0,0.038-0.013,0.05-0.025c0.014-0.013,0.025-0.037,0.025-0.049
					s0-0.025-0.012-0.051h0.05v0.112H18.251z M18.051,35.629v0.025h0.112c0.013,0,0.013,0.014,0.013,0.025s0.013,0.025,0.013,0.025
					c0,0.011,0,0.023-0.013,0.036s-0.025,0.013-0.038,0.013c-0.012,0-0.024,0-0.024-0.013c0,0,0,0-0.013-0.013l-0.025,0.013v0.013
					c0.013,0.024,0.025,0.037,0.038,0.05c0.024,0.013,0.037,0.013,0.063,0.013c0.024,0,0.05-0.013,0.075-0.025v0.038h0.037v-0.187
					h0.037v-0.025h-0.274V35.629z"/>
			</g>
		</g>
	</g>
	<path id="XMLID_104_" fill="#ECA071" d="M24.011,19.259c0,0,1.041,0.263,0.74,1.591c-0.301,1.327-0.788,1.34-0.927,1.816
		c-0.138,0.476-0.101,1.703-0.84,1.816c-0.737,0.113-1.165-0.075-1.239-0.301C21.671,23.956,22.872,18.909,24.011,19.259z"/>
	<path id="XMLID_103_" fill="#ECA071" d="M1.943,19.259c0,0-1.039,0.263-0.739,1.591c0.301,1.327,0.789,1.34,0.927,1.816
		c0.137,0.476,0.1,1.703,0.839,1.816c0.739,0.113,1.165-0.075,1.24-0.301C4.273,23.956,3.07,18.909,1.943,19.259z"/>
	<path id="XMLID_102_" fill="#FCCFA8" d="M24.413,17.456c0,6.563-4.897,11.886-11.46,11.886s-11.46-5.323-11.46-11.886
		c0-6.563,4.897-11.886,11.46-11.886S24.413,10.893,24.413,17.456z"/>
	<g id="XMLID_26_">
		<path id="XMLID_101_" opacity="0.7" fill="#EDC6AC" enable-background="new    " d="M10.122,24.908c0,0,2.355,1.641,5.173-0.212
			c-0.214-0.213-0.163-0.476-0.163-0.476s0.363,0.513,0.953,0.588c-0.377,0.163-0.564,0.1-0.564,0.1s-0.676,2.267-2.129,2.53
			c-1.466,0.275-1.904-1.152-2.154-1.503C10.961,25.559,10.623,25.622,10.122,24.908z"/>
		<g id="XMLID_90_">
			<g id="XMLID_91_">
				<path id="XMLID_100_" fill="#A33045" d="M10.986,25.472c0,0,2.304,0.876,4.371-0.689c-0.526,1.353-1.102,2.329-2.092,2.417
					C11.725,27.337,11.675,26.06,10.986,25.472z"/>
				<g id="XMLID_98_">
					<path id="XMLID_99_" fill="#FFFFFF" d="M13.153,26.448c1.103-0.024,1.553-0.789,1.779-1.376
						c-1.315,0.776-2.643,0.688-3.381,0.551C11.737,25.935,12.176,26.473,13.153,26.448z"/>
				</g>
				<g id="XMLID_92_">
					<path id="XMLID_97_" fill="#B75339" d="M15.182,24.382c0,0,0.014,0.013,0.025,0.025c0.012,0.025,0.037,0.037,0.063,0.075
						c0.025,0.025,0.063,0.063,0.101,0.087c0.037,0.025,0.076,0.063,0.125,0.076l0.063,0.038c0.025,0.013,0.05,0.013,0.074,0.025
						c0.051,0.012,0.089,0.038,0.126,0.038c0.076,0.025,0.139,0.038,0.139,0.038s-0.051,0.013-0.139,0.025
						c-0.05,0-0.101,0-0.15-0.012c-0.024-0.013-0.05-0.013-0.087-0.025l-0.074-0.038c-0.051-0.025-0.102-0.075-0.139-0.113
						c-0.025-0.013-0.038-0.038-0.05-0.063c-0.014-0.024-0.025-0.037-0.039-0.062C15.182,24.432,15.182,24.382,15.182,24.382z"/>
					<path id="XMLID_96_" fill="#B75339" d="M10.31,25.059c0,0,0.05,0.024,0.113,0.049c0.025,0.025,0.075,0.038,0.112,0.063
						c0.038,0.025,0.088,0.05,0.125,0.075s0.088,0.05,0.125,0.075c0.038,0.025,0.076,0.049,0.101,0.075
						c0.063,0.05,0.1,0.088,0.1,0.088s-0.05-0.013-0.125-0.025c-0.076-0.025-0.163-0.063-0.263-0.112
						c-0.038-0.025-0.088-0.063-0.125-0.088c-0.038-0.025-0.076-0.063-0.101-0.087C10.335,25.108,10.31,25.059,10.31,25.059z"/>
					<path id="XMLID_93_" fill="#B75339" d="M10.986,25.472c0.188,0.063,0.375,0.1,0.564,0.138c0.187,0.037,0.375,0.05,0.563,0.062
						l0.289,0.013h0.287c0.188-0.013,0.377-0.025,0.563-0.062c0.188-0.025,0.376-0.075,0.552-0.126l0.276-0.087
						c0.087-0.025,0.176-0.062,0.264-0.1c0.088-0.038,0.174-0.076,0.262-0.113l0.251-0.137c0.162-0.088,0.313-0.214,0.477-0.313
						l0.138-0.088l-0.063,0.15c-0.2,0.501-0.399,1.002-0.701,1.453c-0.075,0.113-0.151,0.226-0.25,0.326
						c-0.087,0.101-0.188,0.201-0.289,0.288c-0.1,0.088-0.225,0.163-0.351,0.225c-0.062,0.025-0.125,0.051-0.188,0.076
						c-0.063,0.013-0.137,0.038-0.2,0.05c-0.138,0.025-0.275,0.025-0.401,0.025c-0.137-0.013-0.274-0.013-0.413-0.05
						c-0.063-0.013-0.137-0.038-0.2-0.063c-0.062-0.025-0.125-0.05-0.188-0.088c-0.125-0.063-0.226-0.163-0.313-0.263
						C11.55,26.386,11.387,25.847,10.986,25.472z M10.986,25.472c0.1,0.087,0.188,0.188,0.276,0.288
						c0.087,0.101,0.15,0.226,0.225,0.338c0.15,0.225,0.288,0.451,0.476,0.638c0.088,0.088,0.188,0.176,0.313,0.238
						c0.063,0.038,0.113,0.063,0.176,0.088c0.063,0.025,0.125,0.05,0.188,0.05c0.125,0.038,0.251,0.038,0.388,0.038
						c0.139,0,0.264-0.013,0.39-0.038c0.063-0.013,0.125-0.037,0.188-0.05c0.062-0.025,0.125-0.05,0.175-0.075
						c0.114-0.063,0.226-0.125,0.326-0.213c0.101-0.087,0.188-0.175,0.276-0.276c0.087-0.1,0.162-0.212,0.237-0.313
						c0.15-0.225,0.264-0.451,0.376-0.701c0.112-0.238,0.213-0.489,0.313-0.739l0.075,0.063c-0.164,0.1-0.313,0.226-0.488,0.313
						l-0.251,0.138c-0.089,0.051-0.176,0.076-0.263,0.112c-0.088,0.038-0.176,0.076-0.276,0.101l-0.274,0.087
						c-0.189,0.038-0.376,0.087-0.565,0.112c-0.188,0.025-0.388,0.038-0.576,0.051h-0.287l-0.289-0.025
						c-0.188-0.025-0.376-0.05-0.563-0.087C11.362,25.584,11.174,25.534,10.986,25.472z"/>
				</g>
			</g>
		</g>
		<g id="XMLID_61_">
			<path id="XMLID_89_" opacity="0.7" fill="#EDC6AC" enable-background="new    " d="M7.479,18.482c0,0,0.865-0.914,1.729-0.313
				c-0.814-0.025-0.977,0.25-0.977,0.25s0.15-0.15,0.652-0.038c-0.877,0.138-1.679,0.889-1.729,2.818
				c-0.338,0-0.651,0.075-0.651,0.075s1.477,0.514,1.79,1.666c0.088-0.338,0.088-0.338,0.088-0.338s2.555,0.627,2.08-2.73
				c0.25,0.263,0.288,0.689,0.288,0.689s0.15-2.43-1.14-3.131C8.745,17.055,7.818,17.681,7.479,18.482z"/>
			<path id="XMLID_88_" fill="#FFFFFF" d="M7.78,19.347c0,0-1.29,2.267,0.601,2.993c1.077,0.289,2.242-0.388,1.641-2.479
				C9.634,18.696,8.669,17.969,7.78,19.347z"/>
			<g id="XMLID_79_">
				<g id="XMLID_83_">
					<path id="XMLID_87_" fill="#603827" d="M10.623,19.334c0,0-0.389-1.403-1.34-1.753c-0.74-0.326-1.516,0.438-1.516,0.438
						s0.564-1.052,1.315-0.989C9.822,17.093,10.51,18.132,10.623,19.334z"/>
					<path id="XMLID_84_" fill="#412216" d="M10.623,19.334c-0.101-0.313-0.251-0.614-0.426-0.89
						c-0.088-0.137-0.188-0.263-0.3-0.388c-0.051-0.063-0.113-0.113-0.176-0.163c-0.062-0.05-0.125-0.1-0.2-0.137
						c-0.063-0.05-0.138-0.076-0.213-0.113c-0.063-0.025-0.15-0.063-0.226-0.075s-0.15-0.025-0.225-0.025
						c-0.076,0-0.15,0.013-0.238,0.038c-0.301,0.074-0.589,0.263-0.827,0.476L7.504,18.32l0.188-0.338
						c0.1-0.175,0.213-0.338,0.351-0.488s0.288-0.288,0.463-0.388l0.138-0.063c0.05-0.012,0.101-0.038,0.15-0.049
						c0.1-0.025,0.201-0.025,0.313-0.013c0.087,0.013,0.2,0.037,0.3,0.087c0.1,0.038,0.175,0.101,0.263,0.164
						c0.325,0.25,0.539,0.601,0.689,0.963C10.51,18.558,10.585,18.947,10.623,19.334z M10.623,19.334
						c-0.013-0.1-0.025-0.201-0.05-0.288c-0.025-0.1-0.038-0.188-0.075-0.288c-0.05-0.188-0.126-0.375-0.201-0.551
						c-0.163-0.35-0.388-0.676-0.689-0.901c-0.075-0.05-0.163-0.1-0.238-0.138c-0.087-0.038-0.163-0.063-0.263-0.075
						c-0.088-0.013-0.176,0-0.263,0.013c-0.05,0.012-0.087,0.024-0.125,0.037l-0.125,0.063c-0.163,0.1-0.301,0.225-0.425,0.363
						c-0.125,0.15-0.238,0.3-0.338,0.463l-0.101-0.076c0.125-0.112,0.263-0.212,0.414-0.301c0.15-0.087,0.301-0.149,0.476-0.187
						c0.088-0.025,0.163-0.038,0.25-0.038c0.087,0,0.175,0,0.263,0.025c0.087,0.025,0.15,0.05,0.238,0.087
						c0.075,0.038,0.15,0.075,0.226,0.125c0.075,0.038,0.137,0.101,0.2,0.151c0.063,0.063,0.125,0.112,0.175,0.175
						c0.113,0.125,0.201,0.263,0.288,0.401C10.41,18.72,10.535,19.021,10.623,19.334z"/>
				</g>
				<g id="XMLID_81_" opacity="0.7">
					<path id="XMLID_82_" opacity="0.5" fill="#603827" enable-background="new    " d="M9.045,17.331
						c-0.489-0.063-0.915,0.251-1.215,0.576c-0.038,0.075-0.063,0.113-0.063,0.113s0.776-0.764,1.516-0.438
						c0.713,0.263,1.114,1.114,1.265,1.528C10.335,18.207,9.884,17.431,9.045,17.331z"/>
				</g>
				<path id="XMLID_80_" fill="#956350" d="M8.832,17.143c0,0,0.776-0.063,1.302,0.776C9.721,17.155,9.182,16.98,8.832,17.143z"/>
			</g>
			<g id="XMLID_69_">
				<path id="XMLID_78_" fill="#7B91A5" d="M9.872,20.7c-0.075,0.801-0.576,1.415-1.102,1.365c-0.527-0.05-0.902-0.726-0.815-1.527
					c0.075-0.802,0.576-1.416,1.103-1.365C9.583,19.222,9.947,19.911,9.872,20.7z"/>
				<path id="XMLID_77_" fill="#9E6A3D" d="M9.872,20.7c-0.075,0.801-0.576,1.415-1.102,1.365c-0.527-0.05-0.902-0.726-0.815-1.527
					c0.075-0.802,0.576-1.416,1.103-1.365C9.583,19.222,9.947,19.911,9.872,20.7z"/>
				<path id="XMLID_76_" opacity="0.6" fill="#F89A1C" enable-background="new    " d="M9.634,20.737
					c-0.063,0.614-0.439,1.077-0.839,1.04c-0.401-0.037-0.688-0.551-0.626-1.165c0.062-0.613,0.438-1.077,0.839-1.04
					C9.421,19.61,9.696,20.124,9.634,20.737z"/>
				<g id="XMLID_74_">
					<path id="XMLID_75_" fill="#5F4728" d="M9.521,20.675c-0.05,0.476-0.351,0.851-0.664,0.826
						c-0.327-0.025-0.539-0.438-0.489-0.926c0.05-0.477,0.351-0.852,0.664-0.827C9.346,19.772,9.571,20.186,9.521,20.675z"/>
				</g>
				<g id="XMLID_72_">
					<path id="XMLID_73_" fill="#9E6A3D" d="M7.98,20.312c-0.013,0.074-0.025,0.149-0.038,0.225
						c-0.075,0.801,0.288,1.478,0.815,1.527c0.526,0.05,1.026-0.563,1.102-1.365c0.013-0.076,0.013-0.15,0.013-0.213
						C9.258,20.875,8.406,20.9,7.98,20.312z"/>
				</g>
				<path id="XMLID_71_" fill="#FFFFFF" d="M8.907,20.262c-0.049,0.25-0.212,0.425-0.376,0.388
					c-0.162-0.038-0.263-0.263-0.212-0.501c0.05-0.25,0.212-0.425,0.376-0.388C8.857,19.785,8.957,20.011,8.907,20.262z"/>
				<path id="XMLID_70_" fill="#FFFFFF" d="M8.857,21.013c-0.025,0.113-0.1,0.2-0.176,0.188c-0.075-0.013-0.125-0.125-0.1-0.238
					c0.025-0.113,0.1-0.201,0.176-0.188C8.832,20.8,8.882,20.9,8.857,21.013z"/>
			</g>
			<path id="XMLID_68_" fill="#B75339" d="M6.615,21.301c0,0,0.037,0,0.1,0s0.15,0.025,0.263,0.05
				c0.05,0.025,0.113,0.038,0.163,0.062c0.063,0.025,0.125,0.05,0.175,0.088c0.063,0.038,0.125,0.075,0.188,0.113
				c0.05,0.05,0.113,0.1,0.163,0.15c0.05,0.05,0.113,0.101,0.151,0.163c0.037,0.063,0.087,0.113,0.125,0.176
				c0.038,0.05,0.075,0.113,0.113,0.163c0.025,0.063,0.051,0.113,0.075,0.163c0.088,0.2,0.138,0.338,0.138,0.338
				s-0.087-0.113-0.2-0.301c-0.025-0.05-0.063-0.1-0.088-0.15c-0.038-0.05-0.075-0.1-0.125-0.15
				c-0.037-0.05-0.088-0.101-0.125-0.163c-0.037-0.063-0.1-0.1-0.15-0.15s-0.101-0.101-0.15-0.151
				c-0.05-0.037-0.113-0.074-0.163-0.112c-0.05-0.038-0.101-0.076-0.163-0.1c-0.051-0.025-0.101-0.05-0.151-0.076
				c-0.1-0.037-0.175-0.075-0.238-0.087C6.652,21.301,6.615,21.301,6.615,21.301z"/>
			<path id="XMLID_67_" fill="#B75339" d="M10.122,20.186c0,0-0.025-0.175-0.101-0.425c-0.038-0.125-0.087-0.275-0.15-0.426
				c-0.063-0.15-0.138-0.301-0.238-0.438c-0.05-0.075-0.113-0.138-0.163-0.201c-0.063-0.05-0.125-0.112-0.188-0.15
				c-0.076-0.038-0.138-0.088-0.201-0.101c-0.075-0.024-0.138-0.049-0.2-0.062s-0.125-0.025-0.175-0.025c-0.051,0-0.101,0-0.138,0
				c-0.075,0-0.125,0-0.125,0s0.037-0.013,0.125-0.025c0.038,0,0.087-0.012,0.138-0.025c0.05,0,0.113,0,0.188,0.013
				c0.075,0,0.138,0.025,0.213,0.05c0.074,0.013,0.15,0.063,0.225,0.1s0.138,0.101,0.213,0.163c0.063,0.063,0.125,0.125,0.175,0.201
				c0.101,0.149,0.188,0.313,0.238,0.476c0.063,0.163,0.101,0.313,0.125,0.438C10.134,20.011,10.122,20.186,10.122,20.186z"/>
			<g id="XMLID_65_">
				<path id="XMLID_66_" fill="#CDCDCD" d="M10.021,19.86c-0.1-0.301-0.238-0.576-0.4-0.789c0.977,1.716,0.05,3.144-1.065,3.018
					c-0.952-0.113-1.152-1.027-1.202-1.403c-0.05,0.626,0.125,1.315,1.027,1.653C9.458,22.628,10.61,21.952,10.021,19.86z"/>
			</g>
			<path id="XMLID_62_" fill="#B75339" d="M7.78,19.347c-0.076,0.125-0.125,0.263-0.188,0.401c-0.05,0.138-0.1,0.276-0.138,0.413
				c-0.013,0.075-0.038,0.138-0.05,0.213c-0.012,0.075-0.025,0.15-0.037,0.213L7.354,20.8l0.013,0.213
				c0,0.076,0.025,0.138,0.037,0.213c0.013,0.075,0.038,0.138,0.063,0.213l0.038,0.1l0.063,0.088
				c0.037,0.062,0.063,0.125,0.125,0.175l0.15,0.163l0.175,0.125c0.05,0.05,0.125,0.075,0.188,0.1l0.201,0.088l0,0l0.213,0.037
				c0.075,0,0.138,0.013,0.213,0.013c0.138,0,0.289-0.013,0.413-0.05c0.063-0.013,0.138-0.038,0.2-0.075
				c0.063-0.025,0.126-0.063,0.176-0.113c0.112-0.075,0.213-0.188,0.288-0.301c0.038-0.063,0.062-0.125,0.1-0.188
				c0.025-0.063,0.05-0.138,0.075-0.201c0.038-0.138,0.063-0.275,0.063-0.426c0.013-0.137,0-0.288-0.013-0.425
				c-0.025-0.138-0.037-0.288-0.062-0.426c-0.038-0.138-0.051-0.276-0.113-0.413c-0.05-0.138-0.1-0.263-0.175-0.389
				c-0.063-0.125-0.15-0.25-0.238-0.351c-0.05-0.063-0.101-0.1-0.15-0.15c-0.063-0.038-0.113-0.088-0.176-0.125
				c-0.125-0.075-0.263-0.112-0.413-0.112c-0.138,0.012-0.289,0.05-0.414,0.125l-0.088,0.05l-0.087,0.076
				c-0.063,0.05-0.112,0.087-0.163,0.149C7.942,19.109,7.868,19.234,7.78,19.347z M7.78,19.347c0.088-0.113,0.163-0.238,0.263-0.351
				c0.05-0.062,0.1-0.1,0.163-0.15l0.087-0.075l0.088-0.063c0.125-0.075,0.263-0.113,0.414-0.125c0.15,0,0.288,0.037,0.426,0.112
				c0.063,0.037,0.125,0.075,0.188,0.125c0.05,0.05,0.113,0.1,0.163,0.15c0.1,0.113,0.188,0.226,0.263,0.351
				c0.075,0.125,0.137,0.263,0.187,0.401c0.063,0.137,0.088,0.288,0.125,0.425c0.038,0.138,0.05,0.289,0.076,0.438
				c0,0.15,0.024,0.288,0.012,0.438c0,0.15-0.024,0.301-0.062,0.438c-0.025,0.075-0.05,0.138-0.075,0.213
				c-0.038,0.063-0.063,0.137-0.113,0.2c-0.087,0.125-0.188,0.238-0.313,0.326c-0.063,0.037-0.125,0.087-0.201,0.112
				c-0.063,0.038-0.138,0.063-0.213,0.076c-0.15,0.038-0.301,0.05-0.438,0.05c-0.075,0-0.151-0.012-0.226-0.025
				s-0.15-0.038-0.213-0.05l0,0l0,0l-0.2-0.1c-0.063-0.038-0.138-0.063-0.188-0.112l-0.175-0.138l-0.151-0.163
				c-0.05-0.05-0.087-0.125-0.125-0.188l-0.05-0.1l-0.038-0.101c-0.025-0.075-0.05-0.137-0.063-0.213
				c-0.013-0.075-0.025-0.15-0.025-0.225V20.8l0.025-0.225c0.012-0.075,0.025-0.15,0.038-0.213c0.012-0.075,0.037-0.138,0.05-0.213
				c0.038-0.137,0.088-0.275,0.138-0.413C7.642,19.61,7.704,19.473,7.78,19.347z"/>
		</g>
		<g id="XMLID_56_">
			<path id="XMLID_60_" fill="#B75339" d="M12.301,22.29c0.038,0.213,0.051,0.438-0.013,0.651c-0.013,0.05-0.038,0.112-0.063,0.163
				c-0.025,0.05-0.05,0.101-0.087,0.15c-0.038,0.05-0.075,0.088-0.125,0.125c-0.038,0.038-0.1,0.063-0.15,0.1l0,0
				c-0.025,0.025-0.063,0.038-0.075,0.075c-0.025,0.025-0.038,0.063-0.038,0.1c0,0.038,0,0.075,0,0.112
				c0.013,0.038,0.013,0.076,0.038,0.114c0.025,0.075,0.075,0.137,0.137,0.2c0.025,0.038,0.063,0.05,0.088,0.088
				c0.025,0.024,0.076,0.05,0.1,0.063c0.038,0.025,0.075,0.037,0.113,0.05c0.037,0.024,0.075,0.024,0.126,0.037
				c0.037,0.013,0.087,0.025,0.125,0.025c0.037,0,0.087,0.013,0.125,0.013l0.125-0.013l0.125-0.025
				c0.089-0.013,0.163-0.05,0.251-0.075c-0.076,0.038-0.15,0.087-0.238,0.113l-0.126,0.038l-0.137,0.025
				c-0.051,0.012-0.088,0-0.138,0c-0.051,0-0.088,0-0.138-0.013c-0.051-0.013-0.088-0.013-0.138-0.038
				c-0.038-0.012-0.088-0.025-0.125-0.05c-0.038-0.025-0.088-0.037-0.125-0.075c-0.038-0.025-0.075-0.05-0.112-0.087
				c-0.063-0.063-0.126-0.138-0.163-0.238c-0.05-0.088-0.063-0.188-0.05-0.3c0.012-0.05,0.025-0.101,0.063-0.15
				c0.024-0.05,0.075-0.075,0.113-0.113H11.8c0.038-0.025,0.087-0.037,0.125-0.075c0.038-0.025,0.075-0.063,0.113-0.101
				c0.025-0.038,0.063-0.075,0.088-0.125c0.025-0.037,0.05-0.087,0.063-0.137C12.276,22.716,12.301,22.503,12.301,22.29z"/>
			<path id="XMLID_59_" opacity="0.7" fill="#EDC6AC" enable-background="new    " d="M12.276,22.002c0,0,0.201,1.064-0.263,1.303
				c-0.463,0.238,0.275,1.115,1.453,0.677c0.364-0.163-0.251,0.826-0.965,0.764c-0.726-0.063-0.826-0.426-1.064-0.852
				C11.187,23.468,12.376,23.129,12.276,22.002z"/>
			<path id="XMLID_58_" opacity="0.7" fill="#EDC6AC" enable-background="new    " d="M11.725,23.806c0,0,0.476,0.89,1.553,0.338
				C12.839,24.758,11.775,24.745,11.725,23.806z"/>
			<path id="XMLID_57_" opacity="0.4" fill="#FAD1D0" enable-background="new    " d="M12.501,22.403c0,0-0.138,0.877-0.351,1.002
				c-0.226,0.137-0.163,0.601,0.4,0.313C13.115,23.43,12.665,22.052,12.501,22.403z"/>
		</g>
		<path id="XMLID_55_" opacity="0.4" fill="#FAD1D0" enable-background="new    " d="M6.139,21.751
			c-0.238,0.075-0.276,0.288,0,0.514c0.263,0.226,0.626,0.313,0.89,0.539c0.175,0.15,0.488,0.751,0.738,0.726
			c0.426-0.05,0.288-0.739,0.188-0.977C7.654,21.89,6.828,21.526,6.139,21.751z"/>
		<g id="XMLID_28_">
			<path id="XMLID_54_" opacity="0.7" fill="#EDC6AC" enable-background="new    " d="M18.376,18.482c0,0-0.864-0.914-1.729-0.313
				c0.814-0.025,0.977,0.25,0.977,0.25s-0.15-0.15-0.65-0.038c0.876,0.138,1.679,0.889,1.728,2.818c0.339,0,0.652,0.075,0.652,0.075
				s-1.479,0.514-1.792,1.666c-0.088-0.338-0.088-0.338-0.088-0.338s-2.554,0.627-2.078-2.73c-0.251,0.263-0.289,0.689-0.289,0.689
				s-0.149-2.43,1.141-3.131C17.111,17.055,18.037,17.681,18.376,18.482z"/>
			<path id="XMLID_53_" fill="#FFFFFF" d="M18.088,19.347c0,0,1.29,2.267-0.602,2.993c-1.077,0.289-2.242-0.388-1.641-2.479
				C16.222,18.696,17.187,17.969,18.088,19.347z"/>
			<g id="XMLID_44_">
				<g id="XMLID_48_">
					<path id="XMLID_52_" fill="#603827" d="M15.232,19.334c0,0,0.388-1.403,1.34-1.753c0.738-0.326,1.516,0.438,1.516,0.438
						s-0.563-1.052-1.315-0.989C16.034,17.093,15.345,18.132,15.232,19.334z"/>
					<path id="XMLID_49_" fill="#412216" d="M15.232,19.334c0.101-0.313,0.251-0.614,0.425-0.89
						c0.088-0.137,0.188-0.263,0.302-0.388c0.05-0.063,0.112-0.113,0.174-0.163c0.063-0.05,0.126-0.1,0.202-0.137
						c0.063-0.05,0.138-0.076,0.213-0.113c0.063-0.025,0.149-0.063,0.225-0.075s0.15-0.025,0.226-0.025
						c0.076,0,0.15,0.013,0.237,0.038c0.301,0.074,0.589,0.263,0.827,0.476l0.288,0.263l-0.188-0.338
						c-0.101-0.175-0.214-0.338-0.352-0.488c-0.137-0.15-0.287-0.288-0.464-0.388l-0.138-0.063
						c-0.048-0.012-0.099-0.038-0.149-0.049c-0.101-0.025-0.2-0.025-0.313-0.013c-0.089,0.013-0.2,0.037-0.301,0.087
						c-0.101,0.038-0.176,0.101-0.264,0.164c-0.324,0.25-0.538,0.601-0.688,0.963C15.345,18.558,15.27,18.947,15.232,19.334z
						 M15.232,19.334c0.012-0.1,0.025-0.201,0.05-0.288c0.025-0.1,0.038-0.188,0.075-0.288c0.05-0.188,0.126-0.375,0.2-0.551
						c0.163-0.35,0.389-0.676,0.689-0.901c0.074-0.05,0.162-0.1,0.237-0.138c0.088-0.038,0.163-0.063,0.264-0.075
						c0.087-0.013,0.175,0,0.263,0.013c0.05,0.012,0.088,0.024,0.126,0.037l0.124,0.063c0.163,0.1,0.301,0.225,0.427,0.363
						c0.124,0.15,0.237,0.3,0.338,0.463l0.101-0.076c-0.126-0.112-0.264-0.212-0.413-0.301c-0.151-0.087-0.302-0.149-0.478-0.187
						c-0.087-0.025-0.161-0.038-0.25-0.038c-0.088,0-0.175,0-0.263,0.025c-0.087,0.025-0.15,0.05-0.238,0.087
						c-0.075,0.038-0.149,0.075-0.226,0.125c-0.075,0.038-0.138,0.101-0.199,0.151c-0.063,0.063-0.126,0.112-0.177,0.175
						c-0.112,0.125-0.2,0.263-0.288,0.401C15.458,18.72,15.32,19.021,15.232,19.334z"/>
				</g>
				<g id="XMLID_46_" opacity="0.7">
					<path id="XMLID_47_" opacity="0.5" fill="#603827" enable-background="new    " d="M16.811,17.331
						c0.488-0.063,0.914,0.251,1.215,0.576c0.037,0.075,0.063,0.113,0.063,0.113s-0.777-0.764-1.516-0.438
						c-0.713,0.263-1.114,1.114-1.265,1.528C15.521,18.207,15.972,17.431,16.811,17.331z"/>
				</g>
				<path id="XMLID_45_" fill="#956350" d="M17.023,17.143c0,0-0.776-0.063-1.303,0.776C16.133,17.155,16.672,16.98,17.023,17.143z"
					/>
			</g>
			<g id="XMLID_36_">
				<path id="XMLID_43_" fill="#7B91A5" d="M15.983,20.7c0.076,0.801,0.577,1.415,1.103,1.365c0.526-0.05,0.902-0.726,0.813-1.527
					c-0.075-0.802-0.575-1.416-1.103-1.365C16.271,19.222,15.908,19.911,15.983,20.7z"/>
				<path id="XMLID_42_" fill="#9E6A3D" d="M15.983,20.7c0.076,0.801,0.577,1.415,1.103,1.365c0.526-0.05,0.902-0.726,0.813-1.527
					c-0.075-0.802-0.575-1.416-1.103-1.365C16.271,19.222,15.908,19.911,15.983,20.7z"/>
				<path id="XMLID_41_" opacity="0.6" fill="#F89A1C" enable-background="new    " d="M16.222,20.737
					c0.063,0.614,0.438,1.077,0.839,1.04c0.401-0.037,0.688-0.551,0.627-1.165c-0.063-0.613-0.439-1.077-0.84-1.04
					C16.435,19.61,16.158,20.124,16.222,20.737z"/>
				<g id="XMLID_39_">
					<path id="XMLID_40_" fill="#5F4728" d="M16.335,20.675c0.05,0.476,0.35,0.851,0.663,0.826c0.326-0.025,0.538-0.438,0.488-0.926
						c-0.05-0.477-0.35-0.852-0.664-0.827C16.51,19.772,16.284,20.186,16.335,20.675z"/>
				</g>
				<g id="XMLID_37_">
					<path id="XMLID_38_" fill="#9E6A3D" d="M17.874,20.312c0.013,0.074,0.025,0.149,0.038,0.225
						c0.076,0.801-0.288,1.478-0.813,1.527c-0.526,0.05-1.027-0.563-1.102-1.365c-0.014-0.076-0.014-0.15-0.014-0.213
						C16.598,20.875,17.449,20.9,17.874,20.312z"/>
				</g>
			</g>
			<path id="XMLID_35_" fill="#B75339" d="M19.24,21.301c0,0-0.038,0-0.101,0s-0.15,0.025-0.263,0.05
				c-0.05,0.025-0.112,0.038-0.162,0.062c-0.063,0.025-0.126,0.05-0.177,0.088c-0.063,0.038-0.125,0.075-0.188,0.113
				c-0.051,0.05-0.111,0.1-0.162,0.15c-0.051,0.05-0.113,0.101-0.151,0.163c-0.037,0.063-0.088,0.113-0.125,0.176
				c-0.038,0.05-0.075,0.113-0.112,0.163c-0.025,0.063-0.051,0.113-0.075,0.163c-0.087,0.2-0.138,0.338-0.138,0.338
				s0.088-0.113,0.199-0.301c0.025-0.05,0.063-0.1,0.088-0.15c0.038-0.05,0.075-0.1,0.126-0.15c0.037-0.05,0.088-0.101,0.126-0.163
				c0.037-0.063,0.1-0.1,0.15-0.15c0.049-0.05,0.1-0.101,0.148-0.151c0.051-0.037,0.113-0.074,0.164-0.112
				c0.05-0.038,0.101-0.076,0.163-0.1c0.05-0.025,0.1-0.05,0.149-0.076c0.101-0.037,0.176-0.075,0.238-0.087
				C19.202,21.301,19.24,21.301,19.24,21.301z"/>
			<path id="XMLID_34_" fill="#B75339" d="M15.733,20.186c0,0,0.024-0.175,0.101-0.425c0.037-0.125,0.088-0.275,0.149-0.426
				c0.063-0.15,0.138-0.301,0.238-0.438c0.05-0.075,0.113-0.138,0.163-0.201c0.063-0.05,0.125-0.112,0.188-0.15
				c0.075-0.038,0.137-0.088,0.2-0.101c0.075-0.024,0.139-0.049,0.201-0.062s0.125-0.025,0.175-0.025s0.1,0,0.137,0
				c0.076,0,0.126,0,0.126,0s-0.038-0.013-0.126-0.025c-0.037,0-0.087-0.012-0.137-0.025c-0.05,0-0.112,0-0.188,0.013
				c-0.074,0-0.138,0.025-0.212,0.05c-0.076,0.013-0.15,0.063-0.226,0.1s-0.138,0.101-0.213,0.163
				c-0.063,0.063-0.126,0.125-0.177,0.201c-0.099,0.149-0.187,0.313-0.236,0.476c-0.063,0.163-0.101,0.313-0.126,0.438
				C15.733,20.011,15.733,20.186,15.733,20.186z"/>
			<g id="XMLID_32_">
				<path id="XMLID_33_" fill="#CDCDCD" d="M15.834,19.86c0.1-0.301,0.237-0.576,0.399-0.789c-0.976,1.716-0.05,3.144,1.065,3.018
					c0.952-0.113,1.151-1.027,1.202-1.403c0.05,0.626-0.125,1.315-1.027,1.653C16.409,22.628,15.244,21.952,15.834,19.86z"/>
			</g>
			<path id="XMLID_29_" fill="#B75339" d="M18.088,19.347c0.075,0.125,0.126,0.263,0.188,0.401c0.049,0.138,0.1,0.276,0.137,0.413
				c0.012,0.075,0.037,0.138,0.051,0.213c0.012,0.075,0.024,0.15,0.037,0.213l0.013,0.213l-0.013,0.213
				c0,0.076-0.025,0.138-0.037,0.213c-0.014,0.075-0.039,0.138-0.063,0.213l-0.038,0.1L18.3,21.627
				c-0.036,0.062-0.061,0.125-0.124,0.175l-0.15,0.163L17.85,22.09c-0.05,0.05-0.125,0.075-0.188,0.1l-0.2,0.088l0,0l-0.214,0.037
				c-0.074,0-0.137,0.013-0.212,0.013c-0.139,0-0.288-0.013-0.413-0.05c-0.063-0.013-0.139-0.038-0.201-0.075
				c-0.063-0.025-0.126-0.063-0.175-0.113c-0.114-0.075-0.213-0.188-0.288-0.301c-0.037-0.063-0.063-0.125-0.1-0.188
				c-0.025-0.063-0.051-0.138-0.076-0.201c-0.038-0.138-0.063-0.275-0.063-0.426c-0.013-0.137,0-0.288,0.013-0.425
				c0.024-0.138,0.037-0.288,0.063-0.426c0.038-0.138,0.05-0.276,0.112-0.413c0.051-0.138,0.101-0.263,0.177-0.389
				c0.062-0.125,0.148-0.25,0.236-0.351c0.051-0.063,0.101-0.1,0.151-0.15c0.063-0.038,0.112-0.088,0.175-0.125
				c0.125-0.075,0.264-0.112,0.413-0.112c0.138,0.012,0.287,0.05,0.413,0.125l0.088,0.05l0.088,0.076
				c0.063,0.05,0.111,0.087,0.162,0.149C17.912,19.109,18,19.234,18.088,19.347z M18.088,19.347
				c-0.088-0.113-0.163-0.238-0.264-0.351c-0.05-0.062-0.1-0.1-0.162-0.15l-0.087-0.075l-0.089-0.063
				c-0.125-0.075-0.263-0.113-0.412-0.125c-0.151,0-0.289,0.037-0.427,0.112c-0.063,0.037-0.125,0.075-0.188,0.125
				c-0.05,0.05-0.112,0.1-0.163,0.15c-0.1,0.113-0.188,0.226-0.262,0.351c-0.075,0.125-0.138,0.263-0.188,0.401
				c-0.063,0.137-0.088,0.288-0.125,0.425c-0.038,0.138-0.05,0.289-0.075,0.438c0,0.15-0.025,0.288-0.014,0.438
				c0,0.15,0.025,0.301,0.063,0.438c0.025,0.075,0.05,0.138,0.075,0.213c0.038,0.063,0.063,0.137,0.112,0.2
				c0.089,0.125,0.188,0.238,0.313,0.326c0.063,0.037,0.125,0.087,0.201,0.112c0.062,0.038,0.138,0.063,0.213,0.076
				c0.149,0.038,0.301,0.05,0.438,0.05c0.074,0,0.149-0.012,0.225-0.025c0.074-0.013,0.15-0.038,0.213-0.05l0,0l0,0l0.201-0.1
				c0.062-0.038,0.137-0.063,0.187-0.112l0.177-0.138l0.149-0.163c0.051-0.05,0.088-0.125,0.125-0.188l0.051-0.1l0.037-0.101
				c0.025-0.075,0.051-0.137,0.063-0.213c0.013-0.075,0.025-0.15,0.025-0.225V20.8l-0.025-0.225
				c-0.012-0.075-0.025-0.15-0.037-0.213c-0.014-0.075-0.038-0.138-0.051-0.213c-0.037-0.137-0.088-0.275-0.137-0.413
				C18.214,19.61,18.15,19.473,18.088,19.347z"/>
		</g>
		<path id="XMLID_27_" opacity="0.4" fill="#FAD1D0" enable-background="new    " d="M19.716,21.751
			c0.238,0.075,0.275,0.288,0,0.514c-0.264,0.226-0.627,0.313-0.889,0.539c-0.175,0.15-0.489,0.751-0.739,0.726
			c-0.426-0.05-0.288-0.739-0.188-0.977C18.2,21.89,19.026,21.526,19.716,21.751z"/>
	</g>
	<path id="XMLID_25_" fill="#793F1B" d="M1.343,16.141c0,0-0.025,3.857,0.964,5.848c0.539-1.314,1.215-3.932,2.956-5.46
		c1.728-1.528,4.583-2.054,5.198-2.054c0.212,0.376,0.288,1.429-0.263,2.155c0.713,0,5.888-0.401,5.974-3.82
		c0.264,0.889,1.303,2.53,2.769,2.643c-0.902-0.864-1.153-1.591-0.539-2.167c0.752-0.701,5.16,4.659,5.336,8.241
		c1.729-4.796,0.728-6.224-0.651-7.327c-0.651-0.526-2.768-4.095-5.712-4.634c-3.255-0.588-7.364,1.866-8.103,1.879
		C7.868,11.444,1.894,14.425,1.343,16.141z"/>
	<path id="XMLID_24_" fill="#955827" d="M2.357,20.386c-0.326-1.578-0.375-3.669-0.375-4.133C2.219,15.752,3.296,14.8,5.3,13.698
		c1.815-1.001,3.481-1.628,3.996-1.64c0.313,0,0.713-0.163,1.565-0.514c1.402-0.576,3.508-1.452,5.449-1.452
		c0.338,0,0.664,0.024,0.964,0.087c2.029,0.376,3.733,2.492,4.646,3.62c0.353,0.425,0.577,0.713,0.777,0.877
		c0.977,0.789,1.728,1.703,1.127,4.383c-0.551-1.428-1.353-2.693-1.779-3.319c-0.513-0.739-2.254-3.169-3.456-3.169
		c-0.238,0-0.438,0.075-0.601,0.226c-0.376,0.35-0.489,1.09-0.515,1.378c-0.325-0.414-0.576-1.24-0.677-1.566l-1.239,0.164
		c-0.063,2.192-3.218,3.256-4.747,3.469c0.138-0.676,0.426-1.703,0.226-2.079l-0.176-0.326h-0.375c-0.689,0-3.708,0.526-5.624,2.217
		C3.597,17.168,2.871,19.046,2.357,20.386z"/>
	<path id="XMLID_23_" fill="#793F1B" d="M5.551,13.486c0,0-2.994,3.219-3.056,4.935c1.716-2.706,3.619-4.509,5.899-5.486
		c1.891-0.639,1.34-0.576,1.34-0.576s3.445,0.063,2.781,2.768c1.566-0.927,1.792-2.354,1.454-2.968
		c-0.602-1.102-5.148-1.203-5.249-1.152C8.632,11.081,5.551,13.486,5.551,13.486z"/>
	<path id="XMLID_16_" fill="#793F1B" d="M22.033,14.851c0,0,1.064,1.34,1.24,2.317c0.25-0.677,0.175-1.603,0-1.979
		C23.098,14.826,22.033,14.851,22.033,14.851z"/>
	<path id="XMLID_15_" fill="#793F1B" d="M9.959,12.371c0,0-2.818,0.952-3.068,2.117c1.29-1.139,2.956-1.841,3.532-1.866
		c0.576-0.024-1.516,0.915-1.553,1.34c0.939-0.713,2.63-1.49,2.818-1.591c0.188-0.1,0.326,0.852-0.137,2.343
		c0.663-0.677,0.863-2.505,0.802-2.969C12.276,11.294,10.31,12.246,9.959,12.371z"/>
	<path id="XMLID_14_" fill="#793F1B" d="M13.968,12.095c0,0,0.3,2.092-0.226,2.756c0.99-1.14,1.302-2.217,1.127-2.555
		C14.693,11.958,13.968,12.095,13.968,12.095z"/>
	<path id="XMLID_12_" fill="#ED1B2F" d="M1.343,17.118c0.012,0.25,0.363,0.25,0.714-0.576c0.351-0.827,3.645-3.933,10.758-3.757
		c9.018,0.213,11.247,4.346,11.848,4.371c0.05,0,0.101-0.013,0.112-0.125c0.614-3.169-2.83-15.205-5.41-16.144
		C17.21,0.11,9.308-0.579,7.441,0.749C5.576,2.076,1.055,8.213,1.343,17.118z"/>
	<path id="XMLID_11_" fill="#ED1B2F" d="M1.343,17.118c-0.05,0.25,0.363,0.25,0.714-0.576c0.351-0.827,3.645-3.933,10.758-3.757
		c9.018,0.213,11.247,4.346,11.848,4.371c0.05,0,0.101-0.013,0.112-0.125c0.614-3.169-3.344-13.927-5.924-14.867
		c-0.738-0.263-4.146-0.425-7.452,1.077c-1.265,0.564-3.557,2.518-4.784,3.771C2.921,10.78,2.082,13.172,1.343,17.118z"/>
	<path id="XMLID_10_" fill="#FFFFFF" d="M16.872,20.262c-0.05,0.25-0.213,0.425-0.374,0.388c-0.163-0.038-0.265-0.263-0.214-0.501
		c0.051-0.25,0.214-0.425,0.375-0.388C16.822,19.785,16.911,20.011,16.872,20.262z"/>
	<path id="XMLID_9_" fill="#FFFFFF" d="M16.811,21.013c-0.025,0.113-0.102,0.2-0.175,0.188c-0.075-0.013-0.126-0.125-0.101-0.238
		s0.101-0.201,0.174-0.188C16.797,20.8,16.835,20.9,16.811,21.013z"/>
	<path id="XMLID_3_" fill="#FFFFFF" d="M14.381,10.943l-1.842-0.751l-1.64,0.826l1.553-3.569L14.381,10.943z M16.585,9.077
		l-0.953-1.565l0.64-1.265l-3.619,1.14L16.585,9.077z M12.689,4.932l-0.15,2.279l2.343-2.004l-1.354,0.201L12.689,4.932z
		 M9.659,6.886l2.642,0.375l-1.127-1.816l-0.45,0.852L9.659,6.886z M9.308,7.888l0.639,0.751l-0.227,1.516l2.53-2.706L9.308,7.888z"
		/>
</g>
</svg>
